HIERARCHY
ROOT Hips
{
	OFFSET -3.958830 18.904000 13.208200
	CHANNELS 6 Xposition Yposition Zposition Zrotation Yrotation Xrotation 
	JOINT LHipJoint
	{
		OFFSET 0.000000 0.000000 0.000000
		CHANNELS 3 Zrotation Yrotation Xrotation
		JOINT LeftUpLeg
		{
			OFFSET 1.800000 -1.400000 0.085000
			CHANNELS 3 Zrotation Yrotation Xrotation
			JOINT LeftLeg
			{
				OFFSET 2.215000 -6.000000 0.000000
				CHANNELS 3 Zrotation Yrotation Xrotation
				JOINT LeftFoot
				{
					OFFSET 2.500000 -6.900000 0.000000
					CHANNELS 3 Zrotation Yrotation Xrotation
					JOINT LeftToeBase
					{
						OFFSET 0.200000 -0.500000 1.950000
						CHANNELS 3 Zrotation Yrotation Xrotation
						End Site
						{
							OFFSET 0.000000 0.000000 0.000000
						}
					}
				}
			}
		}
	}
	JOINT RHipJoint
	{
		OFFSET 0.000000 0.000000 0.000000
		CHANNELS 3 Zrotation Yrotation Xrotation
		JOINT RightUpLeg
		{
			OFFSET -1.800000 -1.400000 0.085000
			CHANNELS 3 Zrotation Yrotation Xrotation
			JOINT RightLeg
			{
				OFFSET -2.215000 -6.000000 0.000000
				CHANNELS 3 Zrotation Yrotation Xrotation
				JOINT RightFoot
				{
					OFFSET -2.500000 -6.900000 0.000000
					CHANNELS 3 Zrotation Yrotation Xrotation
					JOINT RightToeBase
					{
						OFFSET -0.200000 -0.500000 1.950000
						CHANNELS 3 Zrotation Yrotation Xrotation
						End Site
						{
							OFFSET 0.000000 0.000000 0.000000
						}
					}
				}
			}
		}
	}
	JOINT LowerBack
	{
		OFFSET 0.000000 0.000000 0.000000
		CHANNELS 3 Zrotation Yrotation Xrotation
		JOINT Spine
		{
			OFFSET -0.087000 1.940000 -0.288900
			CHANNELS 3 Zrotation Yrotation Xrotation
			JOINT Spine1
			{
				OFFSET 0.000000 1.950000 0.060000
				CHANNELS 3 Zrotation Yrotation Xrotation
				JOINT Neck
				{
					OFFSET 0.000000 0.000000 0.000000
					CHANNELS 3 Zrotation Yrotation Xrotation
					JOINT Neck1
					{
						OFFSET 0.000000 1.600000 0.340000
						CHANNELS 3 Zrotation Yrotation Xrotation
						JOINT Head
						{
							OFFSET 0.000000 1.667000 -0.240000
							CHANNELS 3 Zrotation Yrotation Xrotation
							End Site
							{
								OFFSET 0.000000 0.000000 0.000000
							}
						}
					}
				}
				JOINT LeftShoulder
				{
					OFFSET 0.000000 0.000000 0.000000
					CHANNELS 3 Zrotation Yrotation Xrotation
					JOINT LeftArm
					{
						OFFSET 2.700000 1.550000 -0.730000
						CHANNELS 3 Zrotation Yrotation Xrotation
						JOINT LeftForeArm
						{
							OFFSET 5.450000 0.000000 0.000000
							CHANNELS 3 Zrotation Yrotation Xrotation
							JOINT LeftHand
							{
								OFFSET 3.450000 0.000000 0.000000
								CHANNELS 3 Zrotation Yrotation Xrotation
								JOINT LeftHandIndex1
								{
									OFFSET 0.750000 0.000000 0.000000
									CHANNELS 3 Zrotation Yrotation Xrotation
									End Site
									{
										OFFSET 0.000000 0.000000 0.000000
									}
								}
							}
						}
					}
				}
				JOINT RightShoulder
				{
					OFFSET 0.000000 0.000000 0.000000
					CHANNELS 3 Zrotation Yrotation Xrotation
					JOINT RightArm
					{
						OFFSET -2.700000 1.550000 -0.730000
						CHANNELS 3 Zrotation Yrotation Xrotation
						JOINT RightForeArm
						{
							OFFSET -5.450000 0.000000 0.000000
							CHANNELS 3 Zrotation Yrotation Xrotation
							JOINT RightHand
							{
								OFFSET -3.450000 0.000000 0.000000
								CHANNELS 3 Zrotation Yrotation Xrotation
								JOINT RightHandIndex1
								{
									OFFSET -0.750000 0.000000 0.000000
									CHANNELS 3 Zrotation Yrotation Xrotation
									End Site
									{
										OFFSET 0.000000 0.000000 0.000000
									}
								}
							}
						}
					}
				}
			}
		}
	}
}
MOTION
Frames: 10
Frame Time: 0.016667
-5.064800 15.668300 -4.343620 -175.899955 -23.305588 -179.830428 -14.881037 9.917894 3.172397 32.990951 2.169742 -32.886523 1.351971 12.147470 40.881462 0.470361 8.194850 1.374098 0.789120 0.779790 0.619550 19.417546 -8.102249 5.309159 -38.296337 4.752280 -48.256264 29.547614 -27.224497 49.513690 -1.866403 -11.085093 0.401915 0.311240 -0.208970 0.215980 -5.596500 0.726406 -9.402620 18.118873 -13.666039 38.702399 -25.114307 -7.224605 4.320170 3.914714 -14.500972 -13.764348 -38.292727 24.829435 16.982490 -7.465770 12.558720 -14.155820 -5.211371 5.167878 4.371135 -7.095175 21.511432 -2.159165 5.828910 7.854668 -0.573480 -3.438466 3.266576 0.263360 -0.196400 0.353680 0.236520 -1.218523 0.628624 7.294714 -16.011112 -22.335978 2.867483 -14.727682 -5.743534 0.332205 3.309810 -1.415632 0.227450 -0.053970 -0.445700 0.044780 
-4.998420 15.637000 -4.304570 -175.678215 -24.722227 -178.965437 -14.960912 9.688515 3.489711 34.157383 1.715288 -35.343643 0.998848 12.305800 40.999155 0.472363 8.317008 1.316356 0.761840 0.729620 0.625260 19.410005 -7.752478 5.274795 -36.497517 4.022874 -50.774447 25.337805 -29.023335 55.986762 -2.044915 -11.945098 0.157529 0.271310 -0.227870 0.265490 -5.424099 0.228812 -9.520114 17.460115 -15.040353 37.199457 -24.907268 -8.241276 5.655036 4.374250 -14.436418 -14.113701 -37.117548 23.959752 16.484069 -9.540050 13.234440 -13.949000 -6.064816 3.613823 4.563904 -5.084549 21.158149 -1.705484 5.130121 6.668935 -0.703462 -3.446263 3.346724 0.248350 -0.168260 0.344480 0.200780 -1.083395 1.869796 8.012470 -14.582009 -21.038926 2.441656 -12.754678 -5.741139 0.121613 3.283030 -1.397772 0.250430 -0.128310 -0.420560 0.023110 
-4.887670 15.660390 -4.306070 -176.316009 -24.167069 -177.203043 -14.948894 9.563087 3.542882 35.192391 1.670567 -34.477727 -1.712986 12.584405 36.894024 0.346404 8.075992 1.416258 0.752350 0.717000 0.650580 19.451515 -7.636493 5.309249 -33.692118 4.821206 -54.096528 19.865996 -28.511451 62.250375 -2.145484 -12.511478 0.008396 0.304060 -0.184340 0.256910 -5.458480 0.189331 -9.535317 17.084526 -14.812108 35.282466 -25.520129 -8.041441 5.948189 3.791861 -14.358561 -14.020391 -37.195722 23.301865 16.272491 -10.487170 12.980700 -13.272600 -5.066215 2.886217 4.124845 -3.356899 14.508077 -1.154508 3.872499 10.810382 -1.062240 -3.579575 3.252836 0.228760 -0.115250 0.315680 0.196700 -0.962009 2.015799 8.197669 -13.017779 -19.272886 2.178680 -9.609643 -5.672624 -0.294992 3.211468 -1.309053 0.204030 -0.079780 -0.414140 0.004660 
-4.736120 15.747580 -4.331100 -176.059841 -24.565604 -176.350188 -14.927707 9.644179 3.452206 36.260214 1.443844 -32.351357 -2.881768 11.295359 30.395450 0.238768 7.254741 1.640297 0.763620 0.727120 0.600320 19.455020 -7.718732 5.210483 -29.519688 6.089934 -55.661226 15.160052 -26.849244 66.411139 -2.170289 -12.714907 -0.085177 0.292160 -0.198350 0.316340 -5.504713 0.119766 -9.427012 16.786733 -15.686067 34.379624 -26.306937 -8.723383 6.332301 3.623009 -14.222952 -14.942084 -38.045392 23.280337 15.124155 -8.711850 12.293450 -12.148900 -4.491637 1.229933 4.808883 -4.875472 12.162051 -1.034507 6.041643 10.029915 -0.612309 -3.609681 3.397677 0.188990 -0.118940 0.299500 0.183290 -0.884832 3.006290 9.103206 -8.040001 -17.353041 1.428100 -8.109587 -3.907460 -0.413899 3.202820 -1.325048 0.273810 -0.181310 -0.385370 0.032160 
-4.557010 15.842520 -4.390820 -176.275696 -25.467641 -173.485052 -14.974062 9.643664 3.593593 37.680483 0.733333 -29.656715 -6.161539 9.662564 19.774481 0.142687 6.445427 1.951816 0.678020 0.640330 0.467530 19.417173 -7.452754 5.181054 -26.068700 7.036177 -58.335730 11.025982 -24.632584 68.810498 -2.084360 -12.631479 -0.041801 0.258380 -0.068460 0.319030 -5.338561 -0.525065 -9.381665 15.963115 -15.512710 30.602657 -26.057842 -8.473112 6.690577 3.276210 -14.069362 -15.876313 -39.144960 23.023696 14.603945 -5.891990 11.197170 -9.323940 -3.703884 -0.402796 5.564522 -9.098489 9.100143 -0.830554 8.780228 8.338504 -0.078462 -3.713826 3.406595 0.137270 -0.055710 0.210340 0.195320 -0.811661 4.585536 9.757529 -3.375639 -15.498445 0.658841 -5.657890 -2.312845 -0.624435 3.119260 -1.264726 0.247210 -0.151470 -0.309080 0.075900 
-4.341960 15.988880 -4.400180 -175.543264 -26.327708 -172.680636 -15.023504 9.685168 3.868138 38.982310 -0.475868 -25.887252 -6.845597 7.154510 8.930975 0.047358 5.881387 2.216786 0.632180 0.574690 0.497490 19.323671 -7.416932 4.903284 -20.257026 8.831811 -58.657539 5.078672 -19.729469 69.545833 -1.891600 -11.779692 0.220765 0.263410 -0.003700 0.260160 -5.134057 -0.992431 -9.366633 14.324494 -15.895385 31.383734 -24.163494 -8.931102 6.647599 2.945544 -13.905875 -16.227188 -39.686634 23.948905 12.038094 -7.098220 12.899830 -11.116030 -4.480887 -2.498565 6.142269 -11.494415 6.313619 -0.452113 11.204766 5.812613 0.109266 -3.752682 3.249157 0.195110 -0.026890 0.185180 0.178560 0.903434 5.981261 9.659883 -0.464789 -14.876354 0.153693 -3.045484 1.604503 -0.791741 2.908688 -1.197463 0.135589 -0.013590 -0.273650 0.025370 
-4.127130 16.112930 -4.465470 -173.815502 -24.969151 -172.017220 -15.104134 9.357545 4.556095 41.783870 -1.674597 -19.882895 -7.462293 5.218356 -2.129525 0.180927 6.367104 2.082804 0.509190 0.390750 0.472610 19.253297 -7.052690 4.662951 -13.057483 12.193531 -58.200491 -1.305540 -13.723112 68.890177 -1.648975 -10.677363 0.527095 0.179700 0.040860 0.285890 -4.872766 -1.378708 -9.541116 13.370362 -15.247014 31.126369 -22.848822 -8.164180 6.405627 3.137369 -13.511421 -16.503713 -40.604817 24.885410 11.919385 -9.208610 15.070910 -10.922350 -6.173308 -4.280751 6.258992 -14.473183 3.656250 -0.669132 17.766059 2.117419 0.113087 -3.838644 3.210225 0.244440 0.018760 0.146210 0.096900 2.158521 7.506069 9.681723 4.180939 -11.461772 -0.705429 -3.287095 1.566320 -0.607997 2.886300 -1.137465 0.066450 -0.010090 -0.160080 -0.033940 
-3.882720 16.250360 -4.476780 -173.473932 -26.360216 -173.173294 -15.244235 9.563238 4.995773 42.684018 -2.483288 -18.155186 -7.417226 4.596100 -5.217719 0.281594 6.522066 2.022205 0.474670 0.344110 0.456330 19.070128 -7.052637 4.279518 -7.174542 12.589201 -54.639961 -7.465794 -8.212230 65.581040 -1.461575 -9.367130 0.938850 0.107480 -0.022670 0.250210 -4.450620 -2.088506 -9.613835 9.293736 -14.741148 34.791216 -19.603774 -8.389755 6.805253 3.650702 -12.698690 -18.158112 -41.864240 25.535255 13.047433 -8.912630 15.848590 -14.116600 -5.865065 -8.386476 7.387060 -16.184743 -0.444177 -0.320541 16.037821 2.358502 -0.071672 -3.746883 3.106819 0.373737 -0.092270 0.220500 0.073660 1.344233 11.157749 10.729568 11.524467 -9.524644 -2.253072 -2.228844 2.080208 -0.381744 2.897459 -0.982576 0.056760 0.022720 -0.134310 -0.046430 
-3.589240 16.357980 -4.461670 -172.946766 -28.250307 -174.887446 -15.475069 10.177865 5.072055 43.828974 -2.045964 -20.101591 -8.035731 5.649503 -0.510120 0.200663 6.610088 1.951951 0.480270 0.309340 0.521100 18.820770 -6.981135 4.122656 -0.900981 12.868541 -51.435078 -14.158387 -3.032005 61.271157 -1.348183 -8.335139 1.268895 0.070170 -0.103370 0.236200 -3.804965 -3.284300 -9.634543 3.767155 -12.988832 39.269652 -13.873939 -8.189136 7.490287 3.495252 -12.199309 -18.965354 -40.796820 24.350802 14.457810 -10.504930 15.991570 -17.177490 -5.041811 -11.960708 7.832682 -18.952259 -6.539049 0.566929 14.507788 2.676424 -0.233636 -3.692519 3.038554 0.473860 -0.165800 0.278510 0.049450 1.164830 14.800277 11.538798 16.932799 -7.589746 -3.201911 -2.380629 4.333953 -0.194568 2.843979 -0.983795 0.039820 0.023690 -0.146500 -0.095600 
-3.357550 16.410210 -4.507730 -172.887040 -30.631983 -173.714119 -15.617534 10.423591 5.179179 45.506572 -1.716833 -24.242924 -10.135454 7.453481 6.340724 0.133304 6.926605 1.835290 0.465880 0.296080 0.556360 18.725565 -6.856491 4.011294 3.056510 12.324847 -50.711483 -19.460699 0.233212 55.751839 -1.217587 -7.541702 1.534889 0.066840 -0.100040 0.210970 -3.488922 -3.998322 -9.665295 1.671136 -12.823592 38.277562 -11.630059 -8.642137 7.859070 3.088296 -11.607837 -19.161650 -39.132209 25.113490 16.125428 -11.272990 18.117040 -16.934370 -6.960529 -15.434044 7.835563 -19.406247 -10.554939 0.991914 13.621159 2.836863 -0.296647 -3.740977 2.973843 0.478170 -0.150140 0.280280 0.048220 3.736525 17.561966 11.804502 20.951689 -5.359532 -3.614645 -3.738924 7.380564 -0.194782 2.767716 -1.073307 0.006830 0.041740 -0.167860 -0.120610 
